# xmcd
#
# Track frame offsets: 
#        180
#        17526
#        32773
#        47485
#        68867
#        84511
#        94263
#        110146
#        124993
#        133646
#        150048
#        160487
#        168798
#        199316
#        211351
#
# Disc length: 3042 seconds
#
# Revision: 0
# Processed by: cddbd v1.4PL0 Copyright (c) Steve Scherf et al.
# Submitted via: ExactAudioCopy v0.95a1
#
DISCID=c50be00f
DTITLE=Harvester - Campervanlandingham
DYEAR=1997
DGENRE=Alternative
TTITLE0=Real Blinker
TTITLE1=Alaska Air
TTITLE2=Weather
TTITLE3=I'll Be OK
TTITLE4=Tumble On
TTITLE5=Give It Up Smooth
TTITLE6=Steps
TTITLE7=Batholithic Intrusion
TTITLE8=Whiskey Dick
TTITLE9=Ordinary Motherhood
TTITLE10=Hairtrigger
TTITLE11=Man Of Horselives
TTITLE12=The Year It Was Dry
TTITLE13=Oh, Diane
TTITLE14=I Am A Scientist
EXTD=
EXTT0=
EXTT1=
EXTT2=
EXTT3=
EXTT4=
EXTT5=
EXTT6=
EXTT7=
EXTT8=
EXTT9=
EXTT10=
EXTT11=
EXTT12=
EXTT13=
EXTT14=
PLAYORDER=
